<svg version="1.1" id="Layer_1" xmlns="http://www.w3.org/2000/svg" xmlns:xlink="http://www.w3.org/1999/xlink" x="0px" y="0px"
	 width="100%" viewBox="0 0 402 426" enable-background="new 0 0 402 426" xml:space="preserve">
<path fill="#FFFEFE" opacity="1.000000" stroke="none" 
	d="
M403.000000,12.000000 
	C403.000000,150.259933 403.000000,288.519867 403.000000,427.000000 
	C271.310089,427.000000 139.620056,427.000000 7.464721,426.534973 
	C6.988611,291.716431 6.977804,157.362885 7.107180,22.699177 
	C7.827825,20.930086 8.408288,19.471155 9.139146,17.707886 
	C12.194435,15.601649 15.099330,13.799749 18.472431,11.997633 
	C36.902779,11.998082 54.865021,11.972102 72.826889,12.042089 
	C74.556160,12.048826 76.283112,12.651811 77.788849,13.257616 
	C74.031586,15.421268 73.856079,18.711552 73.860626,22.152273 
	C73.887009,42.146606 73.864754,62.140995 73.877159,82.135361 
	C73.882576,90.860847 76.620697,93.614761 85.560463,93.678062 
	C95.890366,93.751213 106.221222,93.682899 116.551582,93.707916 
	C118.317162,93.712189 120.082359,93.876251 121.903198,93.969337 
	C121.903198,104.871216 121.903198,115.243156 121.903198,125.999992 
	C119.698814,125.999992 117.892349,125.999992 116.085892,125.999992 
	C91.759415,126.000031 67.432693,126.055458 43.106647,125.953133 
	C38.273556,125.932800 35.001446,127.726768 32.483944,131.911148 
	C25.358601,143.754288 17.884899,155.387756 10.751289,167.226074 
	C9.446052,169.392136 8.478615,172.117447 8.413124,174.612381 
	C8.150879,184.602661 8.141724,194.607513 8.362322,204.599823 
	C8.513186,211.433456 9.141850,218.265961 13.160002,224.213135 
	C16.638214,229.361176 20.919552,232.736664 27.685629,231.875717 
	C38.635509,230.482407 47.654041,221.550735 49.018333,210.565384 
	C49.301609,208.284470 49.771358,205.961044 50.596661,203.828033 
	C51.940784,200.354111 54.910557,199.453384 58.360832,199.816330 
	C61.859379,200.184341 64.300339,201.895737 65.029099,205.496628 
	C65.424400,207.449844 65.587379,209.449356 65.961380,211.407700 
	C67.798065,221.024963 73.101158,227.888260 82.551834,230.813950 
	C92.753365,233.972076 102.328300,230.737793 108.690155,223.199860 
	C112.937363,218.167450 113.909721,212.233337 114.887123,206.134155 
	C115.509689,202.249252 117.678406,199.872620 121.922272,199.763901 
	C126.128532,199.656128 129.007446,201.310349 130.097580,205.501129 
	C130.513519,207.100143 130.801071,208.745834 130.990540,210.388306 
	C132.343658,222.118271 140.857681,230.647263 152.471863,231.854767 
	C164.059280,233.059494 174.409546,226.484451 178.019562,215.361374 
	C179.036362,212.228424 179.201355,208.828293 180.065964,205.634338 
	C181.150909,201.626450 183.821762,199.486481 188.154953,199.781403 
	C192.145874,200.053009 194.662979,202.039276 195.463196,206.017014 
	C195.692154,207.155090 195.854324,208.312088 195.961319,209.468338 
	C196.834198,218.900177 201.610657,225.926041 210.063934,229.763275 
	C219.103775,233.866806 228.040314,232.698898 235.864517,226.336288 
	C242.073669,221.287033 244.354507,214.293533 245.034958,206.530441 
	C245.374161,202.660431 247.576859,200.149078 251.765427,199.809052 
	C255.939011,199.470230 258.950409,200.949295 260.245300,205.094681 
	C260.686737,206.507751 260.915833,208.007523 261.073364,209.485657 
	C262.269470,220.711395 269.245544,228.830536 279.907166,231.340897 
	C290.368195,233.804001 300.749054,229.551086 306.201233,219.705643 
	C308.301392,215.913147 308.923828,211.252731 309.938995,206.921997 
	C311.101959,201.961090 313.878326,199.515015 318.587738,199.794586 
	C322.911835,200.051285 325.536896,202.835007 325.972656,207.675491 
	C326.077087,208.835541 325.999786,210.013412 326.127258,211.169708 
	C327.508057,223.697281 335.085480,231.723969 345.723999,231.961197 
	C356.938263,232.211288 364.861328,225.490005 366.129211,212.479889 
	C367.303680,200.428452 366.863312,188.201782 366.752777,176.055756 
	C366.725800,173.089096 365.799591,169.780182 364.272705,167.237625 
	C357.243439,155.532562 349.699371,144.136597 342.672333,132.430267 
	C339.843903,127.718353 336.196625,125.904106 330.827026,125.936485 
	C306.668060,126.082176 282.507690,125.999985 258.347839,125.999962 
	C256.601929,125.999954 254.856003,125.999962 253.332535,125.999962 
	C253.332535,114.763130 253.332535,104.367844 253.332535,93.694626 
	C266.110474,93.694626 278.431580,93.772186 290.751099,93.666267 
	C298.451172,93.600075 301.603668,90.649834 301.648987,83.165810 
	C301.771027,63.005569 301.704590,42.844090 301.680084,22.683142 
	C301.675262,18.697136 300.790710,15.059023 297.334869,12.565141 
	C299.473694,12.203084 301.291534,12.013411 303.109467,12.012446 
	C336.406311,11.994817 369.703156,11.999806 403.000000,12.000000 
M226.604568,247.211365 
	C210.930222,249.757599 198.211548,244.278732 187.555573,231.996490 
	C178.912827,242.323914 168.243683,247.866516 155.235367,248.195587 
	C141.890549,248.533157 131.280945,242.564484 122.444260,232.610138 
	C115.959518,239.529968 109.228287,245.753082 100.132515,246.825226 
	C91.635818,247.826767 82.928261,247.039383 74.157936,247.039383 
	C74.157936,282.091797 74.157936,317.843170 74.157936,353.678772 
	C150.122864,353.678772 225.797089,353.678772 301.126617,353.678772 
	C301.126617,316.901093 301.126617,280.621033 301.126617,243.787735 
	C292.109558,247.723831 283.574921,248.016602 274.958740,245.941193 
	C266.152710,243.820053 258.793671,239.205978 252.905609,231.727264 
	C245.536987,239.314697 237.961899,245.736740 226.604568,247.211365 
M57.697548,345.499725 
	C57.697548,308.016388 57.697548,270.533020 57.697548,231.747925 
	C48.554764,242.618988 38.017357,247.957901 24.871710,248.452637 
	C24.871710,250.408844 24.871710,251.880829 24.871710,253.352798 
	C24.871719,299.509949 24.864969,345.667114 24.877661,391.824249 
	C24.880093,400.664520 27.276545,403.024048 36.169788,403.024445 
	C137.148972,403.028839 238.128143,403.028534 339.107330,403.024933 
	C347.831482,403.024628 350.604156,400.257935 350.683594,391.335693 
	C350.750336,383.837830 350.697693,376.338898 350.697693,368.840454 
	C350.697754,331.181549 350.632294,293.522369 350.786285,255.864120 
	C350.804138,251.497086 350.166809,249.142822 345.095520,248.866562 
	C341.740936,248.683807 338.170227,247.366089 335.236267,245.639084 
	C329.330505,242.162796 323.793610,238.059860 317.999023,234.144196 
	C317.999023,235.320648 317.999054,236.929092 317.999054,238.537537 
	C317.999054,278.362671 318.000275,318.187775 317.998108,358.012909 
	C317.997559,368.354462 315.433472,370.870758 304.898499,370.870911 
	C226.747940,370.872192 148.597397,370.872040 70.446838,370.868347 
	C68.948303,370.868256 67.431137,370.961426 65.954529,370.767914 
	C60.186737,370.012115 57.833485,367.388824 57.722424,361.495972 
	C57.628242,356.498749 57.699173,351.498413 57.697548,345.499725 
z"/>
<path fill="#F6F6F6" opacity="1.000000" stroke="none" 
	d="
M18.004225,11.997849 
	C15.099330,13.799749 12.194435,15.601649 8.790825,17.758316 
	C7.531734,19.744120 6.771358,21.375154 6.007606,23.470760 
	C6.002820,158.290222 6.001410,292.645111 6.000000,427.000000 
	C4.334570,427.000000 2.669140,427.000000 1.002782,427.000000 
	C1.001855,285.106598 1.001855,143.213196 1.001855,1.000000 
	C53.687130,1.000000 106.374908,1.000000 159.569946,1.353184 
	C165.129761,7.200112 171.675949,8.978550 178.811752,8.981437 
	C253.541168,9.011666 328.270599,9.000041 403.000000,9.000000 
	C403.000000,9.444445 403.000000,9.888889 402.531342,10.666365 
	C276.104126,10.999538 150.145584,10.994928 24.187048,11.041328 
	C22.125990,11.042088 20.065161,11.665173 18.004225,11.997849 
z"/>
<path fill="#FFFFFF" opacity="1.000000" stroke="none" 
	d="
M166.000000,1.000000 
	C245.000000,1.000000 324.000000,1.000000 403.000000,1.004179 
	C403.000000,2.338931 403.000000,3.669503 402.531342,5.499828 
	C337.767059,5.999535 273.471405,5.999489 209.175766,5.999441 
	C199.181625,5.999433 189.173752,6.307580 179.199356,5.863805 
	C174.513840,5.655340 169.149734,5.960027 166.000000,1.000000 
z"/>
<path fill="#F0F0F0" opacity="1.000000" stroke="none" 
	d="
M165.571533,1.000000 
	C169.149734,5.960027 174.513840,5.655340 179.199356,5.863805 
	C189.173752,6.307580 199.181625,5.999433 209.175766,5.999441 
	C273.471405,5.999489 337.767059,5.999535 402.531342,5.999791 
	C403.000000,6.750000 403.000000,7.500000 403.000000,8.625000 
	C328.270599,9.000041 253.541168,9.011666 178.811752,8.981437 
	C171.675949,8.978550 165.129761,7.200112 160.038605,1.353184 
	C161.714355,1.000000 163.428711,1.000000 165.571533,1.000000 
z"/>
<path fill="#E5E5E5" opacity="1.000000" stroke="none" 
	d="
M6.250000,427.000000 
	C6.001410,292.645111 6.002820,158.290222 6.246550,23.469814 
	C6.488869,23.004301 6.966998,23.009335 6.966998,23.009335 
	C6.977804,157.362885 6.988611,291.716431 6.999708,426.534973 
	C7.000000,427.000000 6.500000,427.000000 6.250000,427.000000 
z"/>
<path fill="#EBEBEB" opacity="1.000000" stroke="none" 
	d="
M18.472431,11.997632 
	C20.065161,11.665173 22.125990,11.042088 24.187048,11.041328 
	C150.145584,10.994928 276.104126,10.999538 402.531342,10.999699 
	C403.000000,11.000000 403.000000,11.500000 403.000000,11.750000 
	C369.703156,11.999806 336.406311,11.994817 303.109467,12.012446 
	C301.291534,12.013411 299.473694,12.203084 296.919373,12.544025 
	C293.885529,12.521339 291.588257,12.032188 289.290710,12.030807 
	C221.486038,11.990050 153.681320,11.986798 85.876671,12.039144 
	C83.254585,12.041168 80.632973,12.651258 78.011139,12.978008 
	C76.283112,12.651811 74.556160,12.048826 72.826889,12.042089 
	C54.865021,11.972102 36.902779,11.998082 18.472431,11.997632 
z"/>
<path fill="#FB8170" opacity="1.000000" stroke="none" 
	d="
M77.788849,13.257616 
	C80.632973,12.651258 83.254585,12.041168 85.876671,12.039144 
	C153.681320,11.986798 221.486038,11.990050 289.290710,12.030807 
	C291.588257,12.032188 293.885529,12.521339 296.598419,12.804249 
	C300.790710,15.059023 301.675262,18.697136 301.680084,22.683142 
	C301.704590,42.844090 301.771027,63.005569 301.648987,83.165810 
	C301.603668,90.649834 298.451172,93.600075 290.751099,93.666267 
	C278.431580,93.772186 266.110474,93.694626 253.332535,93.694626 
	C253.332535,104.367844 253.332535,114.763130 253.332535,125.999962 
	C254.856003,125.999962 256.601929,125.999954 258.347839,125.999962 
	C282.507690,125.999985 306.668060,126.082176 330.827026,125.936485 
	C336.196625,125.904106 339.843903,127.718353 342.672333,132.430267 
	C349.699371,144.136597 357.243439,155.532562 364.272705,167.237625 
	C365.799591,169.780182 366.725800,173.089096 366.752777,176.055756 
	C366.863312,188.201782 367.303680,200.428452 366.129211,212.479889 
	C364.861328,225.490005 356.938263,232.211288 345.723999,231.961197 
	C335.085480,231.723969 327.508057,223.697281 326.127258,211.169708 
	C325.999786,210.013412 326.077087,208.835541 325.972656,207.675491 
	C325.536896,202.835007 322.911835,200.051285 318.587738,199.794586 
	C313.878326,199.515015 311.101959,201.961090 309.938995,206.921997 
	C308.923828,211.252731 308.301392,215.913147 306.201233,219.705643 
	C300.749054,229.551086 290.368195,233.804001 279.907166,231.340897 
	C269.245544,228.830536 262.269470,220.711395 261.073364,209.485657 
	C260.915833,208.007523 260.686737,206.507751 260.245300,205.094681 
	C258.950409,200.949295 255.939011,199.470230 251.765427,199.809052 
	C247.576859,200.149078 245.374161,202.660431 245.034958,206.530441 
	C244.354507,214.293533 242.073669,221.287033 235.864517,226.336288 
	C228.040314,232.698898 219.103775,233.866806 210.063934,229.763275 
	C201.610657,225.926041 196.834198,218.900177 195.961319,209.468338 
	C195.854324,208.312088 195.692154,207.155090 195.463196,206.017014 
	C194.662979,202.039276 192.145874,200.053009 188.154953,199.781403 
	C183.821762,199.486481 181.150909,201.626450 180.065964,205.634338 
	C179.201355,208.828293 179.036362,212.228424 178.019562,215.361374 
	C174.409546,226.484451 164.059280,233.059494 152.471863,231.854767 
	C140.857681,230.647263 132.343658,222.118271 130.990540,210.388306 
	C130.801071,208.745834 130.513519,207.100143 130.097580,205.501129 
	C129.007446,201.310349 126.128532,199.656128 121.922272,199.763901 
	C117.678406,199.872620 115.509689,202.249252 114.887123,206.134155 
	C113.909721,212.233337 112.937363,218.167450 108.690155,223.199860 
	C102.328300,230.737793 92.753365,233.972076 82.551834,230.813950 
	C73.101158,227.888260 67.798065,221.024963 65.961380,211.407700 
	C65.587379,209.449356 65.424400,207.449844 65.029099,205.496628 
	C64.300339,201.895737 61.859379,200.184341 58.360832,199.816330 
	C54.910557,199.453384 51.940784,200.354111 50.596661,203.828033 
	C49.771358,205.961044 49.301609,208.284470 49.018333,210.565384 
	C47.654041,221.550735 38.635509,230.482407 27.685629,231.875717 
	C20.919552,232.736664 16.638214,229.361176 13.160002,224.213135 
	C9.141850,218.265961 8.513186,211.433456 8.362322,204.599823 
	C8.141724,194.607513 8.150879,184.602661 8.413124,174.612381 
	C8.478615,172.117447 9.446052,169.392136 10.751289,167.226074 
	C17.884899,155.387756 25.358601,143.754288 32.483944,131.911148 
	C35.001446,127.726768 38.273556,125.932800 43.106647,125.953133 
	C67.432693,126.055458 91.759415,126.000031 116.085892,125.999992 
	C117.892349,125.999992 119.698814,125.999992 121.903198,125.999992 
	C121.903198,115.243156 121.903198,104.871216 121.903198,93.969337 
	C120.082359,93.876251 118.317162,93.712189 116.551582,93.707916 
	C106.221222,93.682899 95.890366,93.751213 85.560463,93.678062 
	C76.620697,93.614761 73.882576,90.860847 73.877159,82.135361 
	C73.864754,62.140995 73.887009,42.146606 73.860626,22.152273 
	C73.856079,18.711552 74.031586,15.421268 77.788849,13.257616 
M198.500000,125.997551 
	C210.946518,125.997551 223.393036,125.997551 235.906693,125.997551 
	C235.906693,114.962273 235.906693,104.575600 235.906693,94.071350 
	C203.457901,94.071350 171.405594,94.071350 139.233948,94.071350 
	C139.233948,104.834328 139.233948,115.221413 139.233948,125.997551 
	C158.893402,125.997551 178.196701,125.997551 198.500000,125.997551 
z"/>
<path fill="#FB806F" opacity="1.000000" stroke="none" 
	d="
M227.033463,247.168518 
	C237.961899,245.736740 245.536987,239.314697 252.905609,231.727264 
	C258.793671,239.205978 266.152710,243.820053 274.958740,245.941193 
	C283.574921,248.016602 292.109558,247.723831 301.126617,243.787735 
	C301.126617,280.621033 301.126617,316.901093 301.126617,353.678772 
	C225.797089,353.678772 150.122864,353.678772 74.157936,353.678772 
	C74.157936,317.843170 74.157936,282.091797 74.157936,247.039383 
	C82.928261,247.039383 91.635818,247.826767 100.132515,246.825226 
	C109.228287,245.753082 115.959518,239.529968 122.444260,232.610138 
	C131.280945,242.564484 141.890549,248.533157 155.235367,248.195587 
	C168.243683,247.866516 178.912827,242.323914 187.555573,231.996490 
	C198.211548,244.278732 210.930222,249.757599 227.033463,247.168518 
z"/>
<path fill="#FB8170" opacity="1.000000" stroke="none" 
	d="
M57.697296,345.999573 
	C57.699173,351.498413 57.628242,356.498749 57.722424,361.495972 
	C57.833485,367.388824 60.186737,370.012115 65.954529,370.767914 
	C67.431137,370.961426 68.948303,370.868256 70.446838,370.868347 
	C148.597397,370.872040 226.747940,370.872192 304.898499,370.870911 
	C315.433472,370.870758 317.997559,368.354462 317.998108,358.012909 
	C318.000275,318.187775 317.999054,278.362671 317.999054,238.537537 
	C317.999054,236.929092 317.999023,235.320648 317.999023,234.144196 
	C323.793610,238.059860 329.330505,242.162796 335.236267,245.639084 
	C338.170227,247.366089 341.740936,248.683807 345.095520,248.866562 
	C350.166809,249.142822 350.804138,251.497086 350.786285,255.864120 
	C350.632294,293.522369 350.697754,331.181549 350.697693,368.840454 
	C350.697693,376.338898 350.750336,383.837830 350.683594,391.335693 
	C350.604156,400.257935 347.831482,403.024628 339.107330,403.024933 
	C238.128143,403.028534 137.148972,403.028839 36.169788,403.024445 
	C27.276545,403.024048 24.880093,400.664520 24.877661,391.824249 
	C24.864969,345.667114 24.871719,299.509949 24.871710,253.352798 
	C24.871710,251.880829 24.871710,250.408844 24.871710,248.452637 
	C38.017357,247.957901 48.554764,242.618988 57.697548,231.747925 
	C57.697548,270.533020 57.697548,308.016388 57.697296,345.999573 
z"/>
<path fill="#EBEBEB" opacity="1.000000" stroke="none" 
	d="
M7.107180,22.699177 
	C6.966998,23.009335 6.488869,23.004301 6.249925,23.005245 
	C6.771358,21.375154 7.531734,19.744120 8.640430,18.062653 
	C8.408288,19.471155 7.827825,20.930086 7.107180,22.699177 
z"/>
<path fill="#FFFFFF" opacity="1.000000" stroke="none" 
	d="
M198.000000,125.997551 
	C178.196701,125.997551 158.893402,125.997551 139.233948,125.997551 
	C139.233948,115.221413 139.233948,104.834328 139.233948,94.071350 
	C171.405594,94.071350 203.457901,94.071350 235.906693,94.071350 
	C235.906693,104.575600 235.906693,114.962273 235.906693,125.997551 
	C223.393036,125.997551 210.946518,125.997551 198.000000,125.997551 
z"/>
</svg>