<svg xmlns="http://www.w3.org/2000/svg" version="1.1" xmlns:xlink="http://www.w3.org/1999/xlink" xmlns:svgjs="http://svgjs.dev/svgjs" width="1500" height="261" viewBox="0 0 1500 261"><g transform="matrix(1,0,0,1,-0.9090909090909918,-0.24845422063992828)"><svg viewBox="0 0 396 69" data-background-color="#ffffff" preserveAspectRatio="xMidYMid meet" height="261" width="1500" xmlns="http://www.w3.org/2000/svg" xmlns:xlink="http://www.w3.org/1999/xlink"><g id="tight-bounds" transform="matrix(1,0,0,1,0.2400000000000091,0.06568329970940567)"><svg viewBox="0 0 395.52 68.86863340058119" height="68.86863340058119" width="395.52"><g><svg viewBox="0 0 487.90803357185314 84.95539921434671" height="68.86863340058119" width="395.52"><g transform="matrix(1,0,0,1,92.38803357185313,11.741303364645603)"><svg viewBox="0 0 395.52 61.47279248505551" height="61.47279248505551" width="395.52"><g id="textblocktransform"><svg viewBox="0 0 395.52 61.47279248505551" height="61.47279248505551" width="395.52" id="textblock"><g><svg viewBox="0 0 395.52 61.47279248505551" height="61.47279248505551" width="395.52"><g transform="matrix(1,0,0,1,0,0)"><svg width="395.52" viewBox="1.65 -35.7 234.17 36.400000000000006" height="61.47279248505551" data-palette-color="#30017e"><path d="M11.6 0.7Q9.15 0.7 6.48 0.13 3.8-0.45 2.1-1.25L2.1-1.25 2.75-6.25Q4.75-5 7.2-4.23 9.65-3.45 12.05-3.45L12.05-3.45Q15.15-3.45 16.9-4.73 18.65-6 18.65-8.45L18.65-8.45Q18.65-10.2 17.82-11.45 17-12.7 15.45-13.68 13.9-14.65 11.1-15.9L11.1-15.9Q7.8-17.4 5.88-18.65 3.95-19.9 2.8-21.75 1.65-23.6 1.65-26.35L1.65-26.35Q1.65-29.15 3.1-31.28 4.55-33.4 7.18-34.55 9.8-35.7 13.15-35.7L13.15-35.7Q15.7-35.7 17.98-35.15 20.25-34.6 21.85-33.8L21.85-33.8 21.35-29.1Q17.2-31.55 12.9-31.55L12.9-31.55Q10-31.55 8.35-30.35 6.7-29.15 6.7-26.65L6.7-26.65Q6.7-24.95 7.58-23.83 8.45-22.7 10-21.83 11.55-20.95 14.7-19.5L14.7-19.5Q19.4-17.4 21.55-14.98 23.7-12.55 23.7-8.9L23.7-8.9Q23.7-4.45 20.45-1.88 17.2 0.7 11.6 0.7L11.6 0.7ZM32.55 0.5Q29.75 0.5 27.95-1.5 26.15-3.5 26.15-6.6L26.15-6.6Q26.15-11.2 30-13.23 33.85-15.25 38.6-15.35L38.6-15.35Q38.6-18.55 37.65-19.8 36.7-21.05 34.45-21.05L34.45-21.05Q31.55-21.05 28.55-18.8L28.55-18.8 28-22.45Q31.15-25 35.3-25L35.3-25Q39.25-25 41.15-22.73 43.05-20.45 43.05-15.4L43.05-15.4 43.05-8.25Q43.05-5.4 43.45-4.23 43.85-3.05 45.2-3.05L45.2-3.05 45.75-3.05 45.2 0.5 44.25 0.5Q41.95 0.5 40.85-0.35 39.75-1.2 39.05-3.1L39.05-3.1Q37.9-1.45 36.2-0.48 34.5 0.5 32.55 0.5L32.55 0.5ZM33.9-3.05Q35.1-3.05 36.4-3.98 37.7-4.9 38.6-6.4L38.6-6.4 38.6-12.25Q34.75-12.05 32.75-10.78 30.75-9.5 30.75-6.85L30.75-6.85Q30.75-3.05 33.9-3.05L33.9-3.05ZM55.75 0.5Q51.45 0.5 48.3-1.5L48.3-1.5 48.85-5.9Q52.05-3.4 55.45-3.4L55.45-3.4Q57.25-3.4 58.27-4.15 59.3-4.9 59.3-6.35L59.3-6.35Q59.3-7.45 58.82-8.15 58.35-8.85 57.25-9.5 56.15-10.15 53.85-11.2L53.85-11.2Q51.15-12.45 49.9-14.05 48.65-15.65 48.65-18.2L48.65-18.2Q48.65-21.2 50.75-23.1 52.85-25 56.4-25L56.4-25Q60-25 62.7-23.4L62.7-23.4 62.15-19.35Q60.8-20.25 59.6-20.68 58.4-21.1 56.75-21.1L56.75-21.1Q55-21.1 54-20.35 53-19.6 53-18.25L53-18.25Q53-16.9 53.87-16.2 54.75-15.5 57.3-14.35L57.3-14.35Q60.85-12.75 62.3-11.13 63.75-9.5 63.75-6.85L63.75-6.85Q63.75-3.4 61.6-1.45 59.45 0.5 55.75 0.5L55.75 0.5ZM74.49 0.5Q71.64 0.5 70.27-1.2 68.89-2.9 68.89-5.35L68.89-5.35 68.89-21.05 65.49-21.05 65.89-24.5 68.89-24.5 68.89-30.55 73.24-31 73.24-24.5 78.54-24.5 78.54-21.05 73.24-21.05 73.24-7.1Q73.24-4.85 74.07-3.95 74.89-3.05 76.94-3.05L76.94-3.05 78.49-3.05 78.09 0.5 74.49 0.5ZM87.14 0.5Q84.34 0.5 82.54-1.5 80.74-3.5 80.74-6.6L80.74-6.6Q80.74-11.2 84.59-13.23 88.44-15.25 93.19-15.35L93.19-15.35Q93.19-18.55 92.24-19.8 91.29-21.05 89.04-21.05L89.04-21.05Q86.14-21.05 83.14-18.8L83.14-18.8 82.59-22.45Q85.74-25 89.89-25L89.89-25Q93.84-25 95.74-22.73 97.64-20.45 97.64-15.4L97.64-15.4 97.64-8.25Q97.64-5.4 98.04-4.23 98.44-3.05 99.79-3.05L99.79-3.05 100.34-3.05 99.79 0.5 98.84 0.5Q96.54 0.5 95.44-0.35 94.34-1.2 93.64-3.1L93.64-3.1Q92.49-1.45 90.79-0.48 89.09 0.5 87.14 0.5L87.14 0.5ZM88.49-3.05Q89.69-3.05 90.99-3.98 92.29-4.9 93.19-6.4L93.19-6.4 93.19-12.25Q89.34-12.05 87.34-10.78 85.34-9.5 85.34-6.85L85.34-6.85Q85.34-3.05 88.49-3.05L88.49-3.05ZM129.94-18.85Q135.59-16.75 135.59-10L135.59-10Q135.59-5.4 132.91-2.7 130.24 0 125.54 0L125.54 0 114.24 0 114.24-35 123.34-35Q127.99-35 130.54-32.83 133.09-30.65 133.09-26.4L133.09-26.4Q133.09-23.9 132.29-21.93 131.49-19.95 129.94-18.85L129.94-18.85ZM118.79-30.85L118.79-20.4 122.79-20.4Q125.79-20.4 127.01-21.53 128.24-22.65 128.24-25.7L128.24-25.7Q128.24-28.65 127.01-29.75 125.79-30.85 122.79-30.85L122.79-30.85 118.79-30.85ZM125.14-4.15Q127.69-4.15 129.16-5.68 130.64-7.2 130.64-10.15L130.64-10.15Q130.64-13.35 129.21-14.78 127.79-16.2 125.14-16.2L125.14-16.2 118.79-16.2 118.79-4.15 125.14-4.15ZM145.08 0.5Q142.28 0.5 140.48-1.5 138.68-3.5 138.68-6.6L138.68-6.6Q138.68-11.2 142.53-13.23 146.38-15.25 151.13-15.35L151.13-15.35Q151.13-18.55 150.18-19.8 149.23-21.05 146.98-21.05L146.98-21.05Q144.08-21.05 141.08-18.8L141.08-18.8 140.53-22.45Q143.68-25 147.83-25L147.83-25Q151.78-25 153.68-22.73 155.58-20.45 155.58-15.4L155.58-15.4 155.58-8.25Q155.58-5.4 155.98-4.23 156.38-3.05 157.73-3.05L157.73-3.05 158.28-3.05 157.73 0.5 156.78 0.5Q154.48 0.5 153.38-0.35 152.28-1.2 151.58-3.1L151.58-3.1Q150.43-1.45 148.73-0.48 147.03 0.5 145.08 0.5L145.08 0.5ZM146.43-3.05Q147.63-3.05 148.93-3.98 150.23-4.9 151.13-6.4L151.13-6.4 151.13-12.25Q147.28-12.05 145.28-10.78 143.28-9.5 143.28-6.85L143.28-6.85Q143.28-3.05 146.43-3.05L146.43-3.05ZM178.38-24.5L167.13-3.9 178.13-3.9 178.13 0 160.08 0 171.33-20.55 160.63-20.55 160.63-24.5 178.38-24.5ZM198.68-24.5L187.43-3.9 198.43-3.9 198.43 0 180.38 0 191.63-20.55 180.93-20.55 180.93-24.5 198.68-24.5ZM207.38 0.5Q204.58 0.5 202.78-1.5 200.98-3.5 200.98-6.6L200.98-6.6Q200.98-11.2 204.83-13.23 208.68-15.25 213.43-15.35L213.43-15.35Q213.43-18.55 212.48-19.8 211.53-21.05 209.28-21.05L209.28-21.05Q206.38-21.05 203.38-18.8L203.38-18.8 202.83-22.45Q205.98-25 210.13-25L210.13-25Q214.08-25 215.98-22.73 217.88-20.45 217.88-15.4L217.88-15.4 217.88-8.25Q217.88-5.4 218.28-4.23 218.68-3.05 220.03-3.05L220.03-3.05 220.58-3.05 220.03 0.5 219.08 0.5Q216.78 0.5 215.68-0.35 214.58-1.2 213.88-3.1L213.88-3.1Q212.73-1.45 211.03-0.48 209.33 0.5 207.38 0.5L207.38 0.5ZM208.73-3.05Q209.93-3.05 211.23-3.98 212.53-4.9 213.43-6.4L213.43-6.4 213.43-12.25Q209.58-12.05 207.58-10.78 205.58-9.5 205.58-6.85L205.58-6.85Q205.58-3.05 208.73-3.05L208.73-3.05ZM224.32 0L224.32-24.5 227.87-24.5 228.42-20.4Q230.07-22.8 231.55-23.9 233.02-25 234.67-25L234.67-25Q235.32-25 235.82-24.85L235.82-24.85 235.37-19.9Q234.72-20.05 233.87-20.05L233.87-20.05Q232.22-20.05 230.77-19.23 229.32-18.4 228.67-17.3L228.67-17.3 228.67 0 224.32 0Z" opacity="1" transform="matrix(1,0,0,1,0,0)" fill="#30017e" class="wordmark-text-0" data-fill-palette-color="primary" id="text-0"></path></svg></g></svg></g></svg></g></svg></g><g><svg viewBox="0 0 77.87578261315116 84.95539921434671" height="84.95539921434671" width="77.87578261315116"><g><svg xmlns="http://www.w3.org/2000/svg" xmlns:xlink="http://www.w3.org/1999/xlink" version="1.1" x="0" y="0" viewBox="4 0 88 96" enable-background="new 0 0 96 96" xml:space="preserve" height="84.95539921434671" width="77.87578261315116" class="icon-icon-0" data-fill-palette-color="accent" id="icon-0"><path d="M85.688 28.94c-0.359-0.584-1-0.94-1.695-0.94h-20v-8h10c1.104 0 2-0.9 2-2V2c0-1.1-0.896-2-2-2h-52c-1.104 0-2 0.9-2 2v16c0 1.1 0.896 2 2 2h10v8h-20.12c-0.692 0-1.336 0.36-1.7 0.948L4 38.952V48c0 3.252 1.832 6 4 6 3.308 0 6-2.691 6-6 0-1.1 0.896-2 2-2s2 0.9 2 2c0 3.309 2.692 6 6 6s6-2.691 6-6c0-1.1 0.896-2 2-2s2 0.9 2 2c0 3.309 2.692 6 6 6s6-2.691 6-6c0-1.1 0.896-2 2-2 1.104 0 2 0.9 2 2 0 3.309 2.691 6 6 6s6-2.691 6-6c0-1.1 0.9-2 2-2s2 0.9 2 2c0 3.309 2.691 6 6 6s6-2.691 6-6c0-1.1 0.9-2 2-2s2 0.9 2 2c0 2.764 1.309 6 5 6s5-3.236 5-6v-8.968L85.688 28.94zM35.996 28v-8h24v8H35.996z" fill="#fb806f" data-fill-palette-color="accent"></path><path d="M19.996 84h56V56.78c-1.232 0.588-2.572 0.979-4 0.979-3.264 0-6.172-1.455-8-3.888-1.828 2.424-4.732 4.067-8 4.067-3.264 0-6.168-1.543-8-3.976-1.828 2.433-4.732 4.021-8 4.021s-6.172-1.568-8-4c-1.828 2.432-4.732 4.008-8 4.008-1.428 0-2.768-0.344-4-0.885V84z" fill="#fb806f" data-fill-palette-color="accent"></path><path d="M79.992 54.044V86c0 1.1-0.896 2-2 2h-60c-1.104 0-2-0.9-2-2V53.992C14.164 56.42 11.26 58 7.992 58v36c0 1.1 0.896 2 2 2h76c1.104 0 2-0.9 2-2 0 0 0-30.813 0-35.688C85.016 58.313 81.656 56.275 79.992 54.044z" fill="#fb806f" data-fill-palette-color="accent"></path></svg></g></svg></g></svg></g><defs></defs></svg><rect width="395.52" height="68.86863340058119" fill="none" stroke="none" visibility="hidden"></rect></g></svg></g></svg>